<?xml version="1.0" encoding="UTF-8" standalone="no"?><!DOCTYPE svg PUBLIC "-//W3C//DTD SVG 1.1//EN" "http://www.w3.org/Graphics/SVG/1.1/DTD/svg11.dtd"><svg width="100%" height="100%" viewBox="0 0 280 280" version="1.1" xmlns="http://www.w3.org/2000/svg" xmlns:xlink="http://www.w3.org/1999/xlink" xml:space="preserve" xmlns:serif="http://www.serif.com/" style="fill-rule:evenodd;clip-rule:evenodd;stroke-linejoin:round;stroke-miterlimit:2;"><rect id="Prancheta4" x="0" y="0" width="279.012" height="279.012" style="fill:none;"/><clipPath id="_clip1"><rect x="0" y="0" width="279.012" height="279.012"/></clipPath><g clip-path="url(#_clip1)"><rect x="1.684" y="1.952" width="279.012" height="279.012" style="fill:#fff;fill-opacity:0.2;"/><g><path d="M98.388,92.893c0,5.368 0.992,10.387 2.976,15.055c1.984,4.668 4.697,8.724 8.14,12.166c3.443,3.443 7.44,6.157 11.992,8.141c4.551,1.984 9.453,2.976 14.705,2.976c5.251,0 10.153,-0.992 14.705,-2.976c4.551,-1.984 8.548,-4.698 11.991,-8.141c3.443,-3.442 6.156,-7.498 8.14,-12.166c1.984,-4.668 2.976,-9.687 2.976,-15.055c0,-5.369 -0.992,-10.387 -2.976,-15.055c-1.984,-4.669 -4.697,-8.724 -8.14,-12.167c-3.443,-3.443 -7.44,-6.156 -11.991,-8.14c-4.552,-1.984 -9.454,-2.976 -14.705,-2.976c-5.252,0 -10.154,0.992 -14.705,2.976c-4.552,1.984 -8.549,4.697 -11.992,8.14c-3.443,3.443 -6.156,7.498 -8.14,12.167c-1.984,4.668 -2.976,9.686 -2.976,15.055Zm113.963,63.546l-75.1,0c-9.687,0 -18.644,-1.43 -26.872,-4.289c-8.227,-2.859 -15.317,-7.031 -21.269,-12.517c-5.952,-5.485 -10.62,-12.137 -14.005,-19.956c-3.384,-7.82 -5.077,-16.748 -5.077,-26.784c0,-9.337 1.722,-17.915 5.165,-25.734c3.442,-7.819 8.14,-14.53 14.092,-20.132c5.952,-5.602 12.954,-9.949 21.007,-13.042c8.053,-3.092 16.689,-4.639 25.909,-4.639c9.219,0 17.856,1.576 25.908,4.727c8.053,3.151 15.055,7.527 21.007,13.129c5.952,5.602 10.65,12.284 14.093,20.045c3.442,7.761 5.164,16.309 5.164,25.646c0,4.435 -0.496,8.753 -1.488,12.954c-0.992,4.201 -2.48,8.169 -4.464,11.904c-1.984,3.735 -4.552,7.09 -7.703,10.066c-3.151,2.976 -6.827,5.398 -11.028,7.265l0,0.35l34.661,0l0,21.007Z" style="fill:#fff;fill-rule:nonzero;"/><path d="M70.028,236.347l42.936,-50.949l-41.381,0l0,-16.505l63.986,0l0,16.505l-42.099,50.949l43.534,0l0,17.222l-66.976,0l0,-17.222Z" style="fill:#ff6000;fill-rule:nonzero;"/><path d="M212.351,236.347l-42.936,-50.949l41.381,0l0,-16.505l-63.985,0l0,16.505l42.099,50.949l-43.534,0l0,17.222l66.975,0l0,-17.222Z" style="fill:#fff;fill-rule:nonzero;"/></g></g></svg>