<?xml version="1.0" encoding="UTF-8" standalone="no"?><!DOCTYPE svg PUBLIC "-//W3C//DTD SVG 1.1//EN" "http://www.w3.org/Graphics/SVG/1.1/DTD/svg11.dtd"><svg width="100%" height="100%" viewBox="0 0 1195 261" version="1.1" xmlns="http://www.w3.org/2000/svg" xmlns:xlink="http://www.w3.org/1999/xlink" xml:space="preserve" xmlns:serif="http://www.serif.com/" style="fill-rule:evenodd;clip-rule:evenodd;stroke-linejoin:round;stroke-miterlimit:2;"><rect id="Prancheta5" x="0" y="0" width="1194.51" height="260.197" style="fill:none;"/><clipPath id="_clip1"><rect x="0" y="0" width="1194.51" height="260.197"/></clipPath><g clip-path="url(#_clip1)"><g><path d="M317.12,127.562c0,9.242 1.708,17.882 5.123,25.918c3.416,8.037 8.087,15.019 14.014,20.946c5.927,5.927 12.808,10.598 20.644,14.014c7.836,3.415 16.274,5.123 25.316,5.123c9.041,0 17.479,-1.708 25.315,-5.123c7.836,-3.416 14.717,-8.087 20.644,-14.014c5.927,-5.927 10.599,-12.909 14.014,-20.946c3.416,-8.036 5.124,-16.676 5.124,-25.918c0,-9.242 -1.708,-17.881 -5.124,-25.918c-3.415,-8.037 -8.087,-15.019 -14.014,-20.946c-5.927,-5.927 -12.808,-10.598 -20.644,-14.014c-7.836,-3.415 -16.274,-5.123 -25.315,-5.123c-9.042,0 -17.48,1.708 -25.316,5.123c-7.836,3.416 -14.717,8.087 -20.644,14.014c-5.927,5.927 -10.598,12.909 -14.014,20.946c-3.415,8.037 -5.123,16.676 -5.123,25.918Zm196.195,109.399l-129.29,0c-16.676,0 -32.096,-2.461 -46.261,-7.384c-14.165,-4.922 -26.37,-12.105 -36.617,-21.548c-10.247,-9.443 -18.283,-20.895 -24.11,-34.357c-5.827,-13.461 -8.74,-28.831 -8.74,-46.11c0,-16.073 2.964,-30.841 8.891,-44.302c5.927,-13.461 14.014,-25.014 24.26,-34.658c10.247,-9.644 22.302,-17.128 36.165,-22.452c13.863,-5.325 28.731,-7.987 44.604,-7.987c15.872,0 30.74,2.713 44.603,8.137c13.863,5.425 25.918,12.959 36.165,22.603c10.247,9.644 18.334,21.147 24.261,34.508c5.927,13.361 8.89,28.078 8.89,44.151c0,7.635 -0.854,15.069 -2.561,22.302c-1.708,7.233 -4.27,14.064 -7.685,20.493c-3.416,6.43 -7.836,12.206 -13.261,17.329c-5.425,5.124 -11.754,9.293 -18.987,12.507l0,0.603l59.673,0l0,36.165Z" style="fill:#fff;fill-rule:nonzero;"/><path d="M716.441,154.686c0,12.658 -1.909,24.311 -5.726,34.959c-3.817,10.649 -9.493,19.891 -17.028,27.727c-7.534,7.836 -16.927,13.963 -28.178,18.384c-11.252,4.42 -24.211,6.63 -38.878,6.63c-14.867,0 -27.927,-2.21 -39.178,-6.63c-11.252,-4.421 -20.644,-10.548 -28.179,-18.384c-7.534,-7.836 -13.21,-17.078 -17.027,-27.727c-3.818,-10.648 -5.727,-22.301 -5.727,-34.959l0,-131.098l47.015,0l0,129.29c0,6.63 1.055,12.758 3.164,18.383c2.11,5.626 5.073,10.498 8.891,14.617c3.817,4.119 8.388,7.334 13.712,9.644c5.325,2.311 11.101,3.466 17.329,3.466c6.229,0 11.955,-1.155 17.179,-3.466c5.224,-2.31 9.744,-5.525 13.562,-9.644c3.817,-4.119 6.781,-8.991 8.89,-14.617c2.11,-5.625 3.165,-11.753 3.165,-18.383l0,-129.29l47.014,0l0,131.098Z" style="fill:#fff;fill-rule:nonzero;"/><rect x="759.236" y="23.588" width="47.014" height="213.373" style="fill:#fff;fill-rule:nonzero;"/><path d="M837.895,193.563l108.194,-128.385l-104.276,0l0,-41.59l161.235,0l0,41.59l-106.083,128.385l109.7,0l0,43.398l-168.77,0l0,-43.398Z" style="fill:#ff6000;fill-rule:nonzero;"/><path d="M1196.53,193.563l-108.194,-128.385l104.276,0l0,-41.59l-161.235,0l0,41.59l106.083,128.385l-109.7,0l0,43.398l168.77,0l0,-43.398Z" style="fill:#fff;fill-rule:nonzero;"/></g><g><rect x="2.021" y="0.176" width="220.702" height="260.197" style="fill:#fff;fill-opacity:0.2;"/><g><path d="M69.57,81.71c0,5.368 0.992,10.386 2.976,15.055c1.984,4.668 4.697,8.723 8.14,12.166c3.443,3.443 7.44,6.156 11.992,8.14c4.551,1.984 9.453,2.976 14.705,2.976c5.252,0 10.153,-0.992 14.705,-2.976c4.551,-1.984 8.548,-4.697 11.991,-8.14c3.443,-3.443 6.156,-7.498 8.14,-12.166c1.984,-4.669 2.976,-9.687 2.976,-15.055c0,-5.369 -0.992,-10.387 -2.976,-15.056c-1.984,-4.668 -4.697,-8.723 -8.14,-12.166c-3.443,-3.443 -7.44,-6.156 -11.991,-8.14c-4.552,-1.984 -9.453,-2.976 -14.705,-2.976c-5.252,0 -10.154,0.992 -14.705,2.976c-4.552,1.984 -8.549,4.697 -11.992,8.14c-3.443,3.443 -6.156,7.498 -8.14,12.166c-1.984,4.669 -2.976,9.687 -2.976,15.056Zm113.963,63.546l-75.1,0c-9.686,0 -18.644,-1.43 -26.871,-4.289c-8.228,-2.859 -15.318,-7.032 -21.27,-12.517c-5.952,-5.485 -10.62,-12.137 -14.005,-19.956c-3.384,-7.82 -5.076,-16.748 -5.076,-26.784c0,-9.337 1.721,-17.915 5.164,-25.734c3.443,-7.819 8.14,-14.53 14.092,-20.132c5.952,-5.602 12.954,-9.949 21.007,-13.042c8.053,-3.092 16.689,-4.639 25.909,-4.639c9.22,0 17.856,1.576 25.908,4.727c8.053,3.151 15.056,7.527 21.008,13.129c5.952,5.602 10.649,12.283 14.092,20.044c3.443,7.761 5.164,16.31 5.164,25.647c0,4.434 -0.496,8.752 -1.488,12.954c-0.992,4.201 -2.48,8.169 -4.464,11.904c-1.984,3.734 -4.552,7.09 -7.703,10.066c-3.151,2.976 -6.827,5.397 -11.028,7.265l0,0.35l34.661,0l0,21.007Z" style="fill:#fff;fill-rule:nonzero;"/><path d="M41.211,225.164l42.936,-50.95l-41.382,0l0,-16.504l63.986,0l0,16.504l-42.099,50.95l43.534,0l0,17.222l-66.975,0l0,-17.222Z" style="fill:#ff6000;fill-rule:nonzero;"/><path d="M183.533,225.164l-42.936,-50.95l41.382,0l0,-16.504l-63.986,0l0,16.504l42.099,50.95l-43.534,0l0,17.222l66.975,0l0,-17.222Z" style="fill:#fff;fill-rule:nonzero;"/></g></g></g></svg>