<?xml version="1.0" encoding="UTF-8" standalone="no"?><!DOCTYPE svg PUBLIC "-//W3C//DTD SVG 1.1//EN" "http://www.w3.org/Graphics/SVG/1.1/DTD/svg11.dtd"><svg width="100%" height="100%" viewBox="0 0 616 149" version="1.1" xmlns="http://www.w3.org/2000/svg" xmlns:xlink="http://www.w3.org/1999/xlink" xml:space="preserve" xmlns:serif="http://www.serif.com/" style="fill-rule:evenodd;clip-rule:evenodd;stroke-linejoin:round;stroke-miterlimit:2;"><rect id="Prancheta2" x="0" y="0" width="616" height="148.8" style="fill:none;"/><clipPath id="_clip1"><rect x="0" y="0" width="616" height="148.8"/></clipPath><g clip-path="url(#_clip1)"><g><path d="M34.143,73.038c0,6.134 1.133,11.867 3.4,17.2c2.267,5.334 5.367,9.967 9.3,13.9c3.933,3.934 8.5,7.034 13.7,9.3c5.2,2.267 10.8,3.4 16.8,3.4c6,0 11.6,-1.133 16.8,-3.4c5.2,-2.266 9.767,-5.366 13.7,-9.3c3.933,-3.933 7.033,-8.566 9.3,-13.9c2.267,-5.333 3.4,-11.066 3.4,-17.2c0,-6.133 -1.133,-11.866 -3.4,-17.2c-2.267,-5.333 -5.367,-9.966 -9.3,-13.9c-3.933,-3.933 -8.5,-7.033 -13.7,-9.3c-5.2,-2.266 -10.8,-3.4 -16.8,-3.4c-6,0 -11.6,1.134 -16.8,3.4c-5.2,2.267 -9.767,5.367 -13.7,9.3c-3.933,3.934 -7.033,8.567 -9.3,13.9c-2.267,5.334 -3.4,11.067 -3.4,17.2Zm130.2,72.6l-85.8,0c-11.067,0 -21.3,-1.633 -30.7,-4.9c-9.4,-3.266 -17.5,-8.033 -24.3,-14.3c-6.8,-6.266 -12.133,-13.866 -16,-22.8c-3.867,-8.933 -5.8,-19.133 -5.8,-30.6c0,-10.666 1.967,-20.466 5.9,-29.4c3.933,-8.933 9.3,-16.6 16.1,-23c6.8,-6.4 14.8,-11.366 24,-14.9c9.2,-3.533 19.067,-5.3 29.6,-5.3c10.533,0 20.4,1.8 29.6,5.4c9.2,3.6 17.2,8.6 24,15c6.8,6.4 12.167,14.034 16.1,22.9c3.933,8.867 5.9,18.634 5.9,29.3c0,5.067 -0.567,10 -1.7,14.8c-1.133,4.8 -2.833,9.334 -5.1,13.6c-2.267,4.267 -5.2,8.1 -8.8,11.5c-3.6,3.4 -7.8,6.167 -12.6,8.3l0,0.4l39.6,0l0,24Z" style="fill:#fff;fill-rule:nonzero;"/><path d="M299.143,91.038c0,8.4 -1.267,16.134 -3.8,23.2c-2.533,7.067 -6.3,13.2 -11.3,18.4c-5,5.2 -11.233,9.267 -18.7,12.2c-7.467,2.934 -16.067,4.4 -25.8,4.4c-9.867,0 -18.533,-1.466 -26,-4.4c-7.467,-2.933 -13.7,-7 -18.7,-12.2c-5,-5.2 -8.767,-11.333 -11.3,-18.4c-2.533,-7.066 -3.8,-14.8 -3.8,-23.2l0,-87l31.2,0l0,85.8c0,4.4 0.7,8.467 2.1,12.2c1.4,3.734 3.367,6.967 5.9,9.7c2.533,2.734 5.567,4.867 9.1,6.4c3.533,1.534 7.367,2.3 11.5,2.3c4.133,0 7.933,-0.766 11.4,-2.3c3.467,-1.533 6.467,-3.666 9,-6.4c2.533,-2.733 4.5,-5.966 5.9,-9.7c1.4,-3.733 2.1,-7.8 2.1,-12.2l0,-85.8l31.2,0l0,87Z" style="fill:#fff;fill-rule:nonzero;"/><rect x="327.543" y="4.038" width="31.2" height="141.6" style="fill:#fff;fill-rule:nonzero;"/><path d="M379.743,116.838l71.8,-85.2l-69.2,0l0,-27.6l107,0l0,27.6l-70.4,85.2l72.8,0l0,28.8l-112,0l0,-28.8Z" style="fill:#ff6000;fill-rule:nonzero;"/><path d="M617.743,116.838l-71.8,-85.2l69.2,0l0,-27.6l-107,0l0,27.6l70.4,85.2l-72.8,0l0,28.8l112,0l0,-28.8Z" style="fill:#fff;fill-rule:nonzero;"/></g></g></svg>